<svg xmlns="http://www.w3.org/2000/svg">
    <symbol id="discord" viewBox="0 -28.5 256 256" fill="currentColor" stroke="currentColor">
        <path d="M216.856339,16.5966031 C200.285002,8.84328665 182.566144,3.2084988 164.041564,0 C161.766523,4.11318106 159.108624,9.64549908 157.276099,14.0464379 C137.583995,11.0849896 118.072967,11.0849896 98.7430163,14.0464379 C96.9108417,9.64549908 94.1925838,4.11318106 91.8971895,0 C73.3526068,3.2084988 55.6133949,8.86399117 39.0420583,16.6376612 C5.61752293,67.146514 -3.4433191,116.400813 1.08711069,164.955721 C23.2560196,181.510915 44.7403634,191.567697 65.8621325,198.148576 C71.0772151,190.971126 75.7283628,183.341335 79.7352139,175.300261 C72.104019,172.400575 64.7949724,168.822202 57.8887866,164.667963 C59.7209612,163.310589 61.5131304,161.891452 63.2445898,160.431257 C105.36741,180.133187 151.134928,180.133187 192.754523,160.431257 C194.506336,161.891452 196.298154,163.310589 198.110326,164.667963 C191.183787,168.842556 183.854737,172.420929 176.223542,175.320965 C180.230393,183.341335 184.861538,190.991831 190.096624,198.16893 C211.238746,191.588051 232.743023,181.531619 254.911949,164.955721 C260.227747,108.668201 245.831087,59.8662432 216.856339,16.5966031 Z M85.4738752,135.09489 C72.8290281,135.09489 62.4592217,123.290155 62.4592217,108.914901 C62.4592217,94.5396472 72.607595,82.7145587 85.4738752,82.7145587 C98.3405064,82.7145587 108.709962,94.5189427 108.488529,108.914901 C108.508531,123.290155 98.3405064,135.09489 85.4738752,135.09489 Z M170.525237,135.09489 C157.88039,135.09489 147.510584,123.290155 147.510584,108.914901 C147.510584,94.5396472 157.658606,82.7145587 170.525237,82.7145587 C183.391518,82.7145587 193.761324,94.5189427 193.539891,108.914901 C193.539891,123.290155 183.391518,135.09489 170.525237,135.09489 Z" fill-rule="nonzero"></path>
    </symbol>

    <symbol id="user" viewBox="0 0 24 24" fill="none" stroke="currentColor" stroke-width="2" stroke-linecap="round" stroke-linejoin="round">
        <circle cx="12" cy="8" r="5"/>
        <path d="M20 21a8 8 0 0 0-16 0"/>
    </symbol>

    <symbol id="track" viewBox="0 0 24 24" fill="currentColor">
        <path d="M4 15V8.5C4 6.01472 6.01472 4 8.5 4C10.9853 4 13 6.01472 13 8.5V15.5C13 16.8807 14.1193 18 15.5 18C16.8807 18 18 16.8807 18 15.5V8.82929C16.8348 8.41746 16 7.30622 16 6C16 4.34315 17.3431 3 19 3C20.6569 3 22 4.34315 22 6C22 7.30622 21.1652 8.41746 20 8.82929V15.5C20 17.9853 17.9853 20 15.5 20C13.0147 20 11 17.9853 11 15.5V8.5C11 7.11929 9.88071 6 8.5 6C7.11929 6 6 7.11929 6 8.5V15H9L5 20L1 15H4Z" />
    </symbol>
</svg>