<svg xmlns="http://www.w3.org/2000/svg">
    <symbol id="x" viewBox="0 0 24 24" fill="none" stroke="currentColor" stroke-linecap="round" stroke-linejoin="round">
        <path d="M18 6 6 18"/>
        <path d="m6 6 12 12"/>
    </symbol>

    <symbol id="circle-info" viewBox="0 0 24 24" fill="none" stroke="currentColor" stroke-linecap="round" stroke-linejoin="round">
        <circle cx="12" cy="12" r="10"/>
        <path d="M12 16v-4"/>
        <path d="M12 8h.01"/>
    </symbol>

    <symbol id="chevron-down" viewBox="0 0 24 24" fill="none" stroke="currentColor" stroke-width="2" stroke-linecap="round" stroke-linejoin="round">
        <path d="m6 9 6 6 6-6"/>
    </symbol>

    <symbol id="chevron-up" viewBox="0 0 24 24" fill="none" stroke="currentColor" stroke-width="2" stroke-linecap="round" stroke-linejoin="round">
        <path d="m18 15-6-6-6 6"/>
    </symbol>

    <symbol id="moon" viewBox="0 0 24 24" fill="none" stroke="currentColor" stroke-width="2" stroke-linecap="round" stroke-linejoin="round">
        <path d="M20.985 12.486a9 9 0 1 1-9.473-9.472c.405-.022.617.46.402.803a6 6 0 0 0 8.268 8.268c.344-.215.825-.004.803.401"/>
    </symbol>

    <symbol id="sun" viewBox="0 0 24 24" fill="none" stroke="currentColor" stroke-width="2" stroke-linecap="round" stroke-linejoin="round">
        <circle cx="12" cy="12" r="4"/>
        <path d="M12 2v2"/>
        <path d="M12 20v2"/>
        <path d="m4.93 4.93 1.41 1.41"/>
        <path d="m17.66 17.66 1.41 1.41"/>
        <path d="M2 12h2"/>
        <path d="M20 12h2"/>
        <path d="m6.34 17.66-1.41 1.41"/>
        <path d="m19.07 4.93-1.41 1.41"/>
    </symbol>
</svg>