<svg xmlns="http://www.w3.org/2000/svg" height="800" width="1200" viewBox="-43.95 -14.533 380.9 87.198"><path d="M0 .058h144c-.083.25 0 12 0 12-43.473.258-94.396.062-144 0v-12zm293 0c0 19-.133 39.011-.133 58.011l-12.866-.065v-45.87C242.992 12.183 149 12.058 149 12.058L148.936 0C196.602 0 245.334.058 293 .058zm-293 15h70v43H58v-29H0v-14zm74 43v-43h70l-.167 13.917c-19 0-38.833.083-57.833.083v29" fill="#373737"/><path d="M149.066 58.132L149 15.058l14.001-.064.065 43.136m2.934-.072c-.234-7.752-.033-32.319 0-43h54v43h-13v-29l-29.133-.055.133 29.055m85.936.012L264 29.058h-27l.001 28.943c-.333 0-2.668.057-3.001.057h-11v-43h54v43" fill="#373737"/></svg>